<svg xmlns="http://www.w3.org/2000/svg" viewBox="0 0 2214.45 220"><path d="M106.48,215,81.58,62.3,56.68,215H32.08L.58,5h24l21.6,160.8L72.58,5h18.6l25.5,160.5L138.58,5h24l-31.5,210Z" fill="none" stroke="#3e4140"/><path d="M211.18,119.9v75.9h52.2V215h-76.2V5h75.3V24.2h-51.3v76.5H258v19.2Z" fill="none" stroke="#3e4140"/><path d="M363.27,190.85Q369,200,379.47,200t15.75-7.95q5.25-8,7-30.15l21,2.7q-2.7,30.6-13.65,42.75T378.27,219.5q-20.4,0-32.4-14.7t-12-54V69.2q0-39.3,12-54T378.12.5Q398.37.5,409,11t13.05,37.5l-21.9,5.4q-1.8-19.2-6.75-26.55T378.72,20q-9.75,0-15.45,9.45t-5.7,34.65v93Q357.57,181.7,363.27,190.85Z" fill="none" stroke="#3e4140"/><path d="M520.77,215l-9.3-54.6h-42.3l-9,54.6h-24L474.57,5h31.8l38.4,210ZM490.47,35.3l-18,105.9h35.7Z" fill="none" stroke="#3e4140"/><path d="M591.87,215h-23.4V5h24.9l48.9,153.6V5h23.4V215h-24.9L591.87,61.7Z" fill="none" stroke="#3e4140"/><path d="M746.67,215V5h40.8q22.8,0,35.1,14.55t12.3,52.65v75.6q0,38.1-12.3,52.65T787.47,215Zm64.5-61.8V67.1q0-42.9-23.7-42.9h-16.8V196.1h16.8Q811.17,196.1,811.17,153.2Z" fill="none" stroke="#3e4140"/><path d="M958.17,67.7v84.6q0,38.1-12.15,52.65t-34.8,14.55q-22.66,0-34.8-14.55T864.27,152.3V67.7q0-38.1,12.15-52.65T911.22.5Q933.85.5,946,15.05T958.17,67.7Zm-23.7,89.1V63.2q0-43.2-23.1-43.2a19.52,19.52,0,0,0-17.25,9.3Q888,38.6,888,63.2v93.6q0,24.6,6.15,33.9a19.52,19.52,0,0,0,17.25,9.3Q934.46,200,934.47,156.8Z" fill="none" stroke="#3e4140"/><path d="M1020,24.2V5h81.9V24.2h-29.1V215h-23.7V24.2Z" fill="none" stroke="#3e4140"/><path d="M1214.36,67.7v84.6q0,38.1-12.15,52.65t-34.8,14.55q-22.65,0-34.8-14.55t-12.15-52.65V67.7q0-38.1,12.15-52.65T1167.41.5q22.65,0,34.8,14.55T1214.36,67.7Zm-23.7,89.1V63.2q0-43.2-23.1-43.2a19.54,19.54,0,0,0-17.25,9.3q-6.15,9.3-6.15,33.9v93.6q0,24.6,6.15,33.9a19.54,19.54,0,0,0,17.25,9.3Q1190.66,200,1190.66,156.8Z" fill="none" stroke="#3e4140"/><path d="M1315.16,119.9v75.9h52.2V215h-76.2V5h75.3V24.2h-51.3v76.5H1362v19.2Z" fill="none" stroke="#3e4140"/><path d="M1422.26,215h-23.4V5h24.9l48.9,153.6V5h23.4V215h-24.9l-48.9-153.3Z" fill="none" stroke="#3e4140"/><path d="M1518.86,24.2V5h81.9V24.2h-29.1V215H1548V24.2Z" fill="none" stroke="#3e4140"/><path d="M1647.56,119.9v75.9h52.2V215h-76.2V5h75.3V24.2h-51.3v76.5h46.8v19.2Z" fill="none" stroke="#3e4140"/><path d="M1731.25,215V5h37.2q22.2,0,34.5,14.1t12.3,50.7v1.5q0,45.6-22.2,57.9L1818,215h-24.6L1770,134.6h-14.7V215Zm60.3-140.7v-9q0-23.1-6.15-32.1a19.45,19.45,0,0,0-17-9h-13.2v91.5h13.2Q1791.55,115.7,1791.55,74.3Z" fill="none" stroke="#3e4140"/><path d="M1832.05,24.2V5H1914V24.2h-29.1V215h-23.7V24.2Z" fill="none" stroke="#3e4140"/><path d="M2007.25,215l-9.3-54.6h-42.3l-9,54.6h-24l38.4-210h31.8l38.4,210ZM1977,35.3l-18,105.9h35.7Z" fill="none" stroke="#3e4140"/><path d="M2055,215V5h24V215Z" fill="none" stroke="#3e4140"/><path d="M2140.15,215h-23.4V5h24.9l48.9,153.6V5H2214V215h-24.9l-48.9-153.3Z" fill="none" stroke="#3e4140"/></svg>